<svg preserveAspectRatio="none" overflow="visible" style="display: block;" width="17" height="17" viewBox="0 0 17 17" fill="none" xmlns="http://www.w3.org/2000/svg">
<g id="Frame" clip-path="url(#clip0_0_122)">
<path id="Vector" d="M7.80371 1.99325C7.83406 1.83076 7.92028 1.684 8.04744 1.57839C8.17461 1.47278 8.3347 1.41497 8.5 1.41497C8.6653 1.41497 8.82539 1.47278 8.95256 1.57839C9.07972 1.684 9.16594 1.83076 9.19629 1.99325L9.94075 5.93017C9.99362 6.21006 10.1296 6.46752 10.3311 6.66894C10.5325 6.87035 10.7899 7.00638 11.0698 7.05925L15.0067 7.80371C15.1692 7.83406 15.316 7.92028 15.4216 8.04744C15.5272 8.17461 15.585 8.3347 15.585 8.5C15.585 8.6653 15.5272 8.82539 15.4216 8.95256C15.316 9.07972 15.1692 9.16594 15.0067 9.19629L11.0698 9.94075C10.7899 9.99362 10.5325 10.1296 10.3311 10.3311C10.1296 10.5325 9.99362 10.7899 9.94075 11.0698L9.19629 15.0067C9.16594 15.1692 9.07972 15.316 8.95256 15.4216C8.82539 15.5272 8.6653 15.585 8.5 15.585C8.3347 15.585 8.17461 15.5272 8.04744 15.4216C7.92028 15.316 7.83406 15.1692 7.80371 15.0067L7.05925 11.0698C7.00638 10.7899 6.87035 10.5325 6.66894 10.3311C6.46752 10.1296 6.21006 9.99362 5.93017 9.94075L1.99325 9.19629C1.83076 9.16594 1.684 9.07972 1.57839 8.95256C1.47278 8.82539 1.41497 8.6653 1.41497 8.5C1.41497 8.3347 1.47278 8.17461 1.57839 8.04744C1.684 7.92028 1.83076 7.83406 1.99325 7.80371L5.93017 7.05925C6.21006 7.00638 6.46752 6.87035 6.66894 6.66894C6.87035 6.46752 7.00638 6.21006 7.05925 5.93017L7.80371 1.99325Z" stroke="#D8F36A" stroke-width="1.41667" stroke-linecap="round" stroke-linejoin="round"/>
<path id="Vector_2" d="M14.1667 1.41667V4.25" stroke="#D8F36A" stroke-width="1.41667" stroke-linecap="round" stroke-linejoin="round"/>
<path id="Vector_3" d="M15.5833 2.83333H12.75" stroke="#D8F36A" stroke-width="1.41667" stroke-linecap="round" stroke-linejoin="round"/>
<path id="Vector_4" d="M2.83333 15.5833C3.61574 15.5833 4.25 14.9491 4.25 14.1667C4.25 13.3843 3.61574 12.75 2.83333 12.75C2.05093 12.75 1.41667 13.3843 1.41667 14.1667C1.41667 14.9491 2.05093 15.5833 2.83333 15.5833Z" stroke="#D8F36A" stroke-width="1.41667" stroke-linecap="round" stroke-linejoin="round"/>
</g>
<defs>
<clipPath id="clip0_0_122">
<rect width="17" height="17" fill="white"/>
</clipPath>
</defs>
</svg>
